<svg width="829" height="751" viewBox="0 0 829 751" fill="none" xmlns="http://www.w3.org/2000/svg">
<rect width="829" height="750.237" fill="white"/>
<rect x="201" y="72" width="455.462" height="89.4923" fill="#FF9B6F" stroke="#DCDCDC" stroke-width="2"/>
<rect x="201.488" y="588.938" width="455.462" height="89.4923" fill="#FF9B6F" stroke="#DCDCDC" stroke-width="2"/>
<path d="M322.275 106H326.725L331.65 123H328.5L327.4 119.25H321.65L320.575 123H317.45L322.275 106ZM326.675 116.475L324.5 108.9H324.475L322.4 116.475H326.675ZM338.04 123.225C336.89 123.225 335.999 123.075 335.365 122.775C334.749 122.475 334.307 121.967 334.04 121.25C333.774 120.533 333.64 119.517 333.64 118.2V109.95H336.69V118.25C336.69 119.167 336.84 119.792 337.14 120.125C337.457 120.458 338.049 120.625 338.915 120.625C339.799 120.625 340.474 120.508 340.94 120.275C341.407 120.042 341.74 119.65 341.94 119.1C342.14 118.533 342.24 117.733 342.24 116.7V109.95H345.29V123H342.24V121.175H342.04C341.607 121.958 341.107 122.5 340.54 122.8C339.99 123.083 339.157 123.225 338.04 123.225ZM350.281 109.95H353.031L352.906 112.625H353.181C353.797 111.592 354.239 110.908 354.506 110.575C354.772 110.242 355.056 110.033 355.356 109.95C355.656 109.867 356.206 109.825 357.006 109.825L359.456 109.875V112.875C359.156 112.858 358.706 112.85 358.106 112.85C357.189 112.85 356.381 112.892 355.681 112.975C355.347 113.025 354.989 113.242 354.606 113.625C354.222 114.008 353.906 114.475 353.656 115.025C353.406 115.558 353.281 116.075 353.281 116.575V123H350.281V109.95ZM369.471 123.225C367.854 123.225 366.604 123.025 365.721 122.625C364.837 122.208 364.204 121.525 363.821 120.575C363.454 119.608 363.271 118.233 363.271 116.45C363.271 114.65 363.454 113.267 363.821 112.3C364.204 111.333 364.829 110.65 365.696 110.25C366.579 109.833 367.837 109.625 369.471 109.625C371.104 109.625 372.354 109.833 373.221 110.25C374.104 110.65 374.729 111.333 375.096 112.3C375.479 113.267 375.671 114.65 375.671 116.45C375.671 118.233 375.479 119.608 375.096 120.575C374.729 121.525 374.104 122.208 373.221 122.625C372.337 123.025 371.087 123.225 369.471 123.225ZM366.321 116.45C366.321 117.55 366.412 118.4 366.596 119C366.796 119.583 367.112 120 367.546 120.25C367.996 120.5 368.637 120.625 369.471 120.625C370.304 120.625 370.937 120.5 371.371 120.25C371.821 120 372.137 119.583 372.321 119C372.521 118.4 372.621 117.55 372.621 116.45C372.621 115.333 372.521 114.475 372.321 113.875C372.137 113.275 371.821 112.85 371.371 112.6C370.937 112.333 370.304 112.2 369.471 112.2C368.637 112.2 367.996 112.333 367.546 112.6C367.112 112.85 366.796 113.275 366.596 113.875C366.412 114.475 366.321 115.333 366.321 116.45ZM380.261 109.95H383.011L382.886 112.625H383.161C383.778 111.592 384.219 110.908 384.486 110.575C384.753 110.242 385.036 110.033 385.336 109.95C385.636 109.867 386.186 109.825 386.986 109.825L389.436 109.875V112.875C389.136 112.858 388.686 112.85 388.086 112.85C387.169 112.85 386.361 112.892 385.661 112.975C385.328 113.025 384.969 113.242 384.586 113.625C384.203 114.008 383.886 114.475 383.636 115.025C383.386 115.558 383.261 116.075 383.261 116.575V123H380.261V109.95ZM398.276 123.225C397.06 123.225 396.118 123.108 395.451 122.875C394.801 122.625 394.335 122.217 394.051 121.65C393.785 121.067 393.651 120.25 393.651 119.2C393.651 117.967 393.843 117.017 394.226 116.35C394.61 115.667 395.26 115.183 396.176 114.9C397.093 114.617 398.393 114.475 400.076 114.475H402.051V114.325C402.051 113.492 401.868 112.925 401.501 112.625C401.135 112.325 400.443 112.175 399.426 112.175C398.51 112.175 397.885 112.3 397.551 112.55C397.235 112.783 397.093 113.242 397.126 113.925H394.076C394.026 112.792 394.151 111.925 394.451 111.325C394.768 110.708 395.31 110.275 396.076 110.025C396.86 109.758 397.976 109.625 399.426 109.625C400.876 109.625 401.993 109.767 402.776 110.05C403.576 110.333 404.143 110.808 404.476 111.475C404.81 112.142 404.976 113.092 404.976 114.325V123H402.126V121.45H401.926C401.46 122.133 400.968 122.6 400.451 122.85C399.935 123.1 399.21 123.225 398.276 123.225ZM396.701 118.975C396.701 119.608 396.843 120.042 397.126 120.275C397.426 120.508 397.985 120.625 398.801 120.625C399.635 120.625 400.276 120.517 400.726 120.3C401.176 120.083 401.493 119.717 401.676 119.2C401.876 118.683 401.993 117.942 402.026 116.975L399.551 117C398.801 117.017 398.218 117.083 397.801 117.2C397.401 117.317 397.118 117.517 396.951 117.8C396.785 118.067 396.701 118.458 396.701 118.975ZM427.732 105.925C429.832 105.925 431.448 106.092 432.582 106.425C433.732 106.742 434.54 107.292 435.007 108.075C435.49 108.858 435.732 109.967 435.732 111.4C435.732 112.817 435.523 113.908 435.107 114.675C434.707 115.442 434.015 115.992 433.032 116.325C432.048 116.642 430.657 116.8 428.857 116.8H427.032V123H423.832V106L427.732 105.925ZM428.607 114.025C429.64 114.025 430.44 113.942 431.007 113.775C431.573 113.608 431.973 113.333 432.207 112.95C432.44 112.567 432.557 112.017 432.557 111.3C432.557 110.617 432.423 110.092 432.157 109.725C431.89 109.358 431.44 109.1 430.807 108.95C430.19 108.783 429.307 108.7 428.157 108.7H427.032V114.025H428.607ZM444.422 123.225C442.805 123.225 441.555 123.025 440.672 122.625C439.789 122.208 439.155 121.525 438.772 120.575C438.405 119.608 438.222 118.233 438.222 116.45C438.222 114.65 438.405 113.267 438.772 112.3C439.155 111.333 439.78 110.65 440.647 110.25C441.53 109.833 442.789 109.625 444.422 109.625C446.055 109.625 447.305 109.833 448.172 110.25C449.055 110.65 449.68 111.333 450.047 112.3C450.43 113.267 450.622 114.65 450.622 116.45C450.622 118.233 450.43 119.608 450.047 120.575C449.68 121.525 449.055 122.208 448.172 122.625C447.289 123.025 446.039 123.225 444.422 123.225ZM441.272 116.45C441.272 117.55 441.364 118.4 441.547 119C441.747 119.583 442.064 120 442.497 120.25C442.947 120.5 443.589 120.625 444.422 120.625C445.255 120.625 445.889 120.5 446.322 120.25C446.772 120 447.089 119.583 447.272 119C447.472 118.4 447.572 117.55 447.572 116.45C447.572 115.333 447.472 114.475 447.272 113.875C447.089 113.275 446.772 112.85 446.322 112.6C445.889 112.333 445.255 112.2 444.422 112.2C443.589 112.2 442.947 112.333 442.497 112.6C442.064 112.85 441.747 113.275 441.547 113.875C441.364 114.475 441.272 115.333 441.272 116.45ZM459.462 123.225C457.862 123.225 456.629 123.092 455.762 122.825C454.912 122.558 454.312 122.1 453.962 121.45C453.612 120.8 453.454 119.883 453.487 118.7H456.562C456.579 119.217 456.679 119.617 456.862 119.9C457.046 120.167 457.354 120.358 457.787 120.475C458.237 120.592 458.871 120.65 459.687 120.65C460.671 120.65 461.346 120.558 461.712 120.375C462.079 120.175 462.262 119.817 462.262 119.3C462.262 118.967 462.154 118.692 461.937 118.475C461.737 118.242 461.387 118.042 460.887 117.875C460.387 117.708 459.679 117.542 458.762 117.375C457.429 117.125 456.396 116.85 455.662 116.55C454.946 116.233 454.429 115.842 454.112 115.375C453.812 114.892 453.662 114.258 453.662 113.475C453.662 112.458 453.829 111.683 454.162 111.15C454.512 110.6 455.096 110.208 455.912 109.975C456.746 109.742 457.912 109.625 459.412 109.625C460.879 109.625 462.012 109.75 462.812 110C463.612 110.233 464.179 110.642 464.512 111.225C464.846 111.792 465.021 112.608 465.037 113.675H462.037C462.004 113.108 461.796 112.725 461.412 112.525C461.046 112.308 460.371 112.2 459.387 112.2C458.354 112.2 457.646 112.292 457.262 112.475C456.879 112.658 456.687 113 456.687 113.5C456.687 113.767 456.946 114.008 457.462 114.225C457.996 114.425 459.021 114.7 460.537 115.05C461.787 115.333 462.754 115.65 463.437 116C464.121 116.333 464.604 116.758 464.887 117.275C465.187 117.792 465.337 118.458 465.337 119.275C465.337 120.308 465.162 121.108 464.812 121.675C464.462 122.242 463.862 122.642 463.012 122.875C462.179 123.108 460.996 123.225 459.462 123.225ZM476.027 123.275C474.827 123.275 473.919 123.117 473.302 122.8C472.686 122.483 472.269 122.017 472.052 121.4C471.836 120.767 471.727 119.908 471.727 118.825V112.525H468.502L469.102 109.95H471.827V107.3L474.727 106.075V109.95H479.602V112.525H474.727V118.725C474.727 119.258 474.769 119.65 474.852 119.9C474.952 120.15 475.152 120.333 475.452 120.45C475.769 120.567 476.244 120.625 476.877 120.625C477.594 120.625 478.636 120.525 480.002 120.325V122.95C478.269 123.167 476.944 123.275 476.027 123.275ZM489.443 128.5C487.943 128.5 486.784 128.367 485.968 128.1C485.151 127.833 484.568 127.383 484.218 126.75C483.868 126.133 483.676 125.25 483.643 124.1H486.718C486.751 124.617 486.843 125.008 486.993 125.275C487.143 125.542 487.401 125.725 487.768 125.825C488.151 125.942 488.718 126 489.468 126C490.218 126 490.793 125.908 491.193 125.725C491.609 125.558 491.901 125.267 492.068 124.85C492.234 124.45 492.326 123.875 492.343 123.125L492.368 121.225H492.168C491.934 121.725 491.684 122.108 491.418 122.375C491.151 122.625 490.793 122.808 490.343 122.925C489.909 123.025 489.309 123.075 488.543 123.075C487.176 123.075 486.109 122.875 485.343 122.475C484.576 122.075 484.018 121.408 483.668 120.475C483.334 119.525 483.168 118.192 483.168 116.475C483.168 114.692 483.334 113.317 483.668 112.35C484.018 111.383 484.601 110.7 485.418 110.3C486.251 109.883 487.418 109.675 488.918 109.675C489.868 109.675 490.568 109.808 491.018 110.075C491.484 110.325 491.884 110.8 492.218 111.5H492.418V109.95H495.343V123.375C495.343 124.725 495.168 125.758 494.818 126.475C494.468 127.208 493.868 127.725 493.018 128.025C492.184 128.342 490.993 128.5 489.443 128.5ZM486.218 116.475C486.218 117.525 486.309 118.342 486.493 118.925C486.676 119.492 486.984 119.9 487.418 120.15C487.868 120.383 488.493 120.5 489.293 120.5C490.093 120.5 490.709 120.383 491.143 120.15C491.576 119.9 491.884 119.492 492.068 118.925C492.251 118.342 492.343 117.525 492.343 116.475C492.343 115.375 492.251 114.525 492.068 113.925C491.884 113.325 491.576 112.9 491.143 112.65C490.709 112.383 490.093 112.25 489.293 112.25C488.493 112.25 487.868 112.383 487.418 112.65C486.984 112.9 486.676 113.325 486.493 113.925C486.309 114.525 486.218 115.375 486.218 116.475ZM500.183 109.95H502.933L502.808 112.625H503.083C503.7 111.592 504.141 110.908 504.408 110.575C504.675 110.242 504.958 110.033 505.258 109.95C505.558 109.867 506.108 109.825 506.908 109.825L509.358 109.875V112.875C509.058 112.858 508.608 112.85 508.008 112.85C507.091 112.85 506.283 112.892 505.583 112.975C505.25 113.025 504.891 113.242 504.508 113.625C504.125 114.008 503.808 114.475 503.558 115.025C503.308 115.558 503.183 116.075 503.183 116.575V123H500.183V109.95ZM519.598 123.225C517.965 123.225 516.707 123.025 515.823 122.625C514.94 122.208 514.307 121.508 513.923 120.525C513.557 119.542 513.373 118.15 513.373 116.35C513.373 114.583 513.548 113.225 513.898 112.275C514.265 111.308 514.873 110.625 515.723 110.225C516.59 109.825 517.815 109.625 519.398 109.625C520.915 109.625 522.098 109.842 522.948 110.275C523.798 110.692 524.407 111.4 524.773 112.4C525.157 113.383 525.348 114.775 525.348 116.575L525.323 117.55H516.448C516.515 118.367 516.648 119 516.848 119.45C517.048 119.883 517.357 120.192 517.773 120.375C518.207 120.558 518.807 120.65 519.573 120.65C520.323 120.65 520.865 120.533 521.198 120.3C521.548 120.067 521.823 119.633 522.023 119H525.123C524.957 120.1 524.682 120.95 524.298 121.55C523.915 122.15 523.357 122.583 522.623 122.85C521.89 123.1 520.882 123.225 519.598 123.225ZM522.348 115.175C522.348 114.042 522.123 113.267 521.673 112.85C521.24 112.417 520.482 112.2 519.398 112.2C518.348 112.2 517.598 112.417 517.148 112.85C516.698 113.283 516.473 114.058 516.473 115.175H522.348ZM534.413 123.225C532.813 123.225 531.58 123.092 530.713 122.825C529.863 122.558 529.263 122.1 528.913 121.45C528.563 120.8 528.405 119.883 528.438 118.7H531.513C531.53 119.217 531.63 119.617 531.813 119.9C531.997 120.167 532.305 120.358 532.738 120.475C533.188 120.592 533.822 120.65 534.638 120.65C535.622 120.65 536.297 120.558 536.663 120.375C537.03 120.175 537.213 119.817 537.213 119.3C537.213 118.967 537.105 118.692 536.888 118.475C536.688 118.242 536.338 118.042 535.838 117.875C535.338 117.708 534.63 117.542 533.713 117.375C532.38 117.125 531.347 116.85 530.613 116.55C529.897 116.233 529.38 115.842 529.063 115.375C528.763 114.892 528.613 114.258 528.613 113.475C528.613 112.458 528.78 111.683 529.113 111.15C529.463 110.6 530.047 110.208 530.863 109.975C531.697 109.742 532.863 109.625 534.363 109.625C535.83 109.625 536.963 109.75 537.763 110C538.563 110.233 539.13 110.642 539.463 111.225C539.797 111.792 539.972 112.608 539.988 113.675H536.988C536.955 113.108 536.747 112.725 536.363 112.525C535.997 112.308 535.322 112.2 534.338 112.2C533.305 112.2 532.597 112.292 532.213 112.475C531.83 112.658 531.638 113 531.638 113.5C531.638 113.767 531.897 114.008 532.413 114.225C532.947 114.425 533.972 114.7 535.488 115.05C536.738 115.333 537.705 115.65 538.388 116C539.072 116.333 539.555 116.758 539.838 117.275C540.138 117.792 540.288 118.458 540.288 119.275C540.288 120.308 540.113 121.108 539.763 121.675C539.413 122.242 538.813 122.642 537.963 122.875C537.13 123.108 535.947 123.225 534.413 123.225Z" fill="black"/>
<path d="M365.8 642.225H368.925V630.775H365.975V628H375V630.775H372.05V642.225H375.175V645H365.8V642.225ZM379.69 631.95H382.74V633.75H382.94C383.407 632.933 383.89 632.375 384.39 632.075C384.89 631.775 385.599 631.625 386.515 631.625C387.782 631.625 388.757 631.783 389.44 632.1C390.124 632.4 390.607 632.917 390.89 633.65C391.19 634.367 391.34 635.4 391.34 636.75V645H388.29V636.7C388.29 635.783 388.115 635.158 387.765 634.825C387.432 634.492 386.799 634.325 385.865 634.325C385.049 634.325 384.415 634.442 383.965 634.675C383.532 634.908 383.215 635.308 383.015 635.875C382.832 636.425 382.74 637.208 382.74 638.225V645H379.69V631.95ZM399.48 645.25C398.064 645.25 396.964 645.05 396.18 644.65C395.414 644.233 394.864 643.542 394.53 642.575C394.214 641.592 394.055 640.2 394.055 638.4C394.055 636.617 394.214 635.25 394.53 634.3C394.864 633.333 395.414 632.65 396.18 632.25C396.964 631.833 398.064 631.625 399.48 631.625C400.58 631.625 401.38 631.733 401.88 631.95C402.38 632.167 402.764 632.575 403.03 633.175H403.23V626.8H406.255V645H403.23V643.65H403.03C402.647 644.267 402.205 644.692 401.705 644.925C401.222 645.142 400.48 645.25 399.48 645.25ZM397.13 638.4C397.13 639.5 397.222 640.358 397.405 640.975C397.605 641.575 397.93 642 398.38 642.25C398.847 642.5 399.505 642.625 400.355 642.625C401.122 642.625 401.714 642.5 402.13 642.25C402.547 641.983 402.839 641.55 403.005 640.95C403.189 640.35 403.28 639.5 403.28 638.4C403.28 637.3 403.189 636.458 403.005 635.875C402.839 635.275 402.547 634.85 402.13 634.6C401.714 634.35 401.122 634.225 400.355 634.225C399.505 634.225 398.847 634.35 398.38 634.6C397.93 634.85 397.605 635.275 397.405 635.875C397.222 636.458 397.13 637.3 397.13 638.4ZM415.696 645.225C414.062 645.225 412.804 645.025 411.921 644.625C411.037 644.208 410.404 643.508 410.021 642.525C409.654 641.542 409.471 640.15 409.471 638.35C409.471 636.583 409.646 635.225 409.996 634.275C410.362 633.308 410.971 632.625 411.821 632.225C412.687 631.825 413.912 631.625 415.496 631.625C417.012 631.625 418.196 631.842 419.046 632.275C419.896 632.692 420.504 633.4 420.871 634.4C421.254 635.383 421.446 636.775 421.446 638.575L421.421 639.55H412.546C412.612 640.367 412.746 641 412.946 641.45C413.146 641.883 413.454 642.192 413.871 642.375C414.304 642.558 414.904 642.65 415.671 642.65C416.421 642.65 416.962 642.533 417.296 642.3C417.646 642.067 417.921 641.633 418.121 641H421.221C421.054 642.1 420.779 642.95 420.396 643.55C420.012 644.15 419.454 644.583 418.721 644.85C417.987 645.1 416.979 645.225 415.696 645.225ZM418.446 637.175C418.446 636.042 418.221 635.267 417.771 634.85C417.337 634.417 416.579 634.2 415.496 634.2C414.446 634.2 413.696 634.417 413.246 634.85C412.796 635.283 412.571 636.058 412.571 637.175H418.446ZM428.836 638.35L424.286 631.95H427.636L430.411 636.225H430.511L433.286 631.95H436.636L432.086 638.35L436.911 645H433.461L430.511 640.7H430.411L427.461 645H424.011L428.836 638.35ZM445.676 645.225C444.043 645.225 442.785 645.025 441.901 644.625C441.018 644.208 440.385 643.508 440.001 642.525C439.635 641.542 439.451 640.15 439.451 638.35C439.451 636.583 439.626 635.225 439.976 634.275C440.343 633.308 440.951 632.625 441.801 632.225C442.668 631.825 443.893 631.625 445.476 631.625C446.993 631.625 448.176 631.842 449.026 632.275C449.876 632.692 450.485 633.4 450.851 634.4C451.235 635.383 451.426 636.775 451.426 638.575L451.401 639.55H442.526C442.593 640.367 442.726 641 442.926 641.45C443.126 641.883 443.435 642.192 443.851 642.375C444.285 642.558 444.885 642.65 445.651 642.65C446.401 642.65 446.943 642.533 447.276 642.3C447.626 642.067 447.901 641.633 448.101 641H451.201C451.035 642.1 450.76 642.95 450.376 643.55C449.993 644.15 449.435 644.583 448.701 644.85C447.968 645.1 446.96 645.225 445.676 645.225ZM448.426 637.175C448.426 636.042 448.201 635.267 447.751 634.85C447.318 634.417 446.56 634.2 445.476 634.2C444.426 634.2 443.676 634.417 443.226 634.85C442.776 635.283 442.551 636.058 442.551 637.175H448.426ZM459.441 645.25C458.025 645.25 456.925 645.05 456.141 644.65C455.375 644.233 454.825 643.542 454.491 642.575C454.175 641.592 454.016 640.2 454.016 638.4C454.016 636.617 454.175 635.25 454.491 634.3C454.825 633.333 455.375 632.65 456.141 632.25C456.925 631.833 458.025 631.625 459.441 631.625C460.541 631.625 461.341 631.733 461.841 631.95C462.341 632.167 462.725 632.575 462.991 633.175H463.191V626.8H466.216V645H463.191V643.65H462.991C462.608 644.267 462.166 644.692 461.666 644.925C461.183 645.142 460.441 645.25 459.441 645.25ZM457.091 638.4C457.091 639.5 457.183 640.358 457.366 640.975C457.566 641.575 457.891 642 458.341 642.25C458.808 642.5 459.466 642.625 460.316 642.625C461.083 642.625 461.675 642.5 462.091 642.25C462.508 641.983 462.8 641.55 462.966 640.95C463.15 640.35 463.241 639.5 463.241 638.4C463.241 637.3 463.15 636.458 462.966 635.875C462.8 635.275 462.508 634.85 462.091 634.6C461.675 634.35 461.083 634.225 460.316 634.225C459.466 634.225 458.808 634.35 458.341 634.6C457.891 634.85 457.566 635.275 457.366 635.875C457.183 636.458 457.091 637.3 457.091 638.4ZM473.707 645.2C472.473 645.2 470.998 645.133 469.282 645V628C470.348 627.933 471.315 627.9 472.182 627.9C473.132 627.9 473.982 627.942 474.732 628.025C476.632 628.208 478.098 628.592 479.132 629.175C480.182 629.758 480.923 630.642 481.357 631.825C481.79 632.992 482.007 634.625 482.007 636.725C482.007 638.925 481.757 640.633 481.257 641.85C480.757 643.05 479.915 643.908 478.732 644.425C477.548 644.942 475.873 645.2 473.707 645.2ZM472.482 642.375C473.482 642.442 474.14 642.467 474.457 642.45C475.59 642.383 476.465 642.167 477.082 641.8C477.698 641.433 478.132 640.842 478.382 640.025C478.648 639.192 478.782 638.033 478.782 636.55C478.782 635.15 478.657 634.058 478.407 633.275C478.157 632.475 477.732 631.892 477.132 631.525C476.548 631.142 475.715 630.892 474.632 630.775C473.782 630.692 473.065 630.65 472.482 630.65V642.375ZM489.247 645.2C487.78 645.2 486.147 645.117 484.347 644.95V627.95L488.597 627.875H488.372C490.372 627.875 491.914 628.017 492.997 628.3C494.08 628.583 494.847 629.067 495.297 629.75C495.764 630.417 495.997 631.367 495.997 632.6C495.997 633.717 495.83 634.525 495.497 635.025C495.18 635.525 494.597 635.867 493.747 636.05V636.2C494.53 636.333 495.13 636.55 495.547 636.85C495.98 637.15 496.28 637.567 496.447 638.1C496.63 638.633 496.722 639.358 496.722 640.275C496.722 641.575 496.497 642.575 496.047 643.275C495.597 643.975 494.839 644.475 493.772 644.775C492.722 645.058 491.214 645.2 489.247 645.2ZM487.497 642.4C488.28 642.433 489.005 642.45 489.672 642.45C490.689 642.45 491.464 642.383 491.997 642.25C492.547 642.1 492.939 641.858 493.172 641.525C493.405 641.175 493.522 640.683 493.522 640.05C493.522 639.4 493.422 638.9 493.222 638.55C493.039 638.2 492.722 637.958 492.272 637.825C491.839 637.675 491.205 637.6 490.372 637.6H487.497V642.4ZM490.997 634.85C491.714 634.817 492.197 634.667 492.447 634.4C492.714 634.117 492.847 633.592 492.847 632.825C492.847 632.075 492.672 631.55 492.322 631.25C491.989 630.95 491.347 630.758 490.397 630.675C489.78 630.625 489.089 630.6 488.322 630.6H487.497V634.85H490.997Z" fill="black"/>
<rect x="201" y="190" width="455.462" height="89.4923" fill="#D8EFFF" stroke="#DCDCDC" stroke-width="2"/>
<path d="M349.125 239.225C347.275 239.225 345.85 238.967 344.85 238.45C343.85 237.917 343.133 237.033 342.7 235.8C342.283 234.55 342.075 232.783 342.075 230.5C342.075 228.2 342.275 226.433 342.675 225.2C343.075 223.95 343.742 223.067 344.675 222.55C345.625 222.017 346.967 221.75 348.7 221.75C350.25 221.75 351.458 221.9 352.325 222.2C353.192 222.5 353.817 223 354.2 223.7C354.6 224.4 354.833 225.4 354.9 226.7H351.8C351.75 226.117 351.625 225.675 351.425 225.375C351.225 225.058 350.908 224.833 350.475 224.7C350.058 224.567 349.475 224.5 348.725 224.5C347.808 224.5 347.1 224.683 346.6 225.05C346.1 225.417 345.742 226.033 345.525 226.9C345.325 227.767 345.225 228.992 345.225 230.575C345.225 232.125 345.342 233.325 345.575 234.175C345.808 235.008 346.192 235.6 346.725 235.95C347.275 236.3 348.05 236.475 349.05 236.475C349.683 236.475 350.192 236.442 350.575 236.375C350.975 236.292 351.392 236.158 351.825 235.975V232.15H348.3V229.425H354.85V237.9C353.733 238.417 352.775 238.767 351.975 238.95C351.175 239.133 350.225 239.225 349.125 239.225ZM359.29 225.95H362.04L361.915 228.625H362.19C362.807 227.592 363.249 226.908 363.515 226.575C363.782 226.242 364.065 226.033 364.365 225.95C364.665 225.867 365.215 225.825 366.015 225.825L368.465 225.875V228.875C368.165 228.858 367.715 228.85 367.115 228.85C366.199 228.85 365.39 228.892 364.69 228.975C364.357 229.025 363.999 229.242 363.615 229.625C363.232 230.008 362.915 230.475 362.665 231.025C362.415 231.558 362.29 232.075 362.29 232.575V239H359.29V225.95ZM377.305 239.225C376.089 239.225 375.147 239.108 374.48 238.875C373.83 238.625 373.364 238.217 373.08 237.65C372.814 237.067 372.68 236.25 372.68 235.2C372.68 233.967 372.872 233.017 373.255 232.35C373.639 231.667 374.289 231.183 375.205 230.9C376.122 230.617 377.422 230.475 379.105 230.475H381.08V230.325C381.08 229.492 380.897 228.925 380.53 228.625C380.164 228.325 379.472 228.175 378.455 228.175C377.539 228.175 376.914 228.3 376.58 228.55C376.264 228.783 376.122 229.242 376.155 229.925H373.105C373.055 228.792 373.18 227.925 373.48 227.325C373.797 226.708 374.339 226.275 375.105 226.025C375.889 225.758 377.005 225.625 378.455 225.625C379.905 225.625 381.022 225.767 381.805 226.05C382.605 226.333 383.172 226.808 383.505 227.475C383.839 228.142 384.005 229.092 384.005 230.325V239H381.155V237.45H380.955C380.489 238.133 379.997 238.6 379.48 238.85C378.964 239.1 378.239 239.225 377.305 239.225ZM375.73 234.975C375.73 235.608 375.872 236.042 376.155 236.275C376.455 236.508 377.014 236.625 377.83 236.625C378.664 236.625 379.305 236.517 379.755 236.3C380.205 236.083 380.522 235.717 380.705 235.2C380.905 234.683 381.022 233.942 381.055 232.975L378.58 233C377.83 233.017 377.247 233.083 376.83 233.2C376.43 233.317 376.147 233.517 375.98 233.8C375.814 234.067 375.73 234.458 375.73 234.975ZM387.221 225.95H390.246V227.225H390.446C390.979 226.625 391.479 226.217 391.946 226C392.412 225.783 393.021 225.675 393.771 225.675C395.254 225.675 396.396 225.883 397.196 226.3C397.996 226.7 398.562 227.383 398.896 228.35C399.246 229.317 399.421 230.692 399.421 232.475C399.421 234.242 399.254 235.608 398.921 236.575C398.587 237.525 398.021 238.208 397.221 238.625C396.437 239.025 395.312 239.225 393.846 239.225C392.962 239.225 392.279 239.117 391.796 238.9C391.312 238.683 390.862 238.275 390.446 237.675H390.246V244.375H387.221V225.95ZM390.196 232.475C390.196 233.558 390.279 234.4 390.446 235C390.629 235.583 390.929 236 391.346 236.25C391.762 236.5 392.354 236.625 393.121 236.625C393.971 236.625 394.621 236.5 395.071 236.25C395.537 236 395.862 235.583 396.046 235C396.246 234.4 396.346 233.558 396.346 232.475C396.346 231.375 396.246 230.525 396.046 229.925C395.862 229.325 395.537 228.9 395.071 228.65C394.621 228.4 393.971 228.275 393.121 228.275C392.354 228.275 391.762 228.4 391.346 228.65C390.929 228.9 390.629 229.325 390.446 229.925C390.279 230.525 390.196 231.375 390.196 232.475ZM402.661 220.8H405.711V227.7H405.911C406.328 226.917 406.794 226.375 407.311 226.075C407.828 225.775 408.544 225.625 409.461 225.625C410.744 225.625 411.728 225.775 412.411 226.075C413.094 226.375 413.578 226.892 413.861 227.625C414.161 228.342 414.311 229.367 414.311 230.7V239H411.261V230.65C411.261 229.717 411.086 229.083 410.736 228.75C410.403 228.4 409.761 228.225 408.811 228.225C407.994 228.225 407.361 228.342 406.911 228.575C406.478 228.808 406.169 229.208 405.986 229.775C405.803 230.342 405.711 231.15 405.711 232.2V239H402.661V220.8ZM432.991 222H436.191V236.175H444.791V238.975H432.991V222ZM452.257 239.225C451.04 239.225 450.098 239.108 449.432 238.875C448.782 238.625 448.315 238.217 448.032 237.65C447.765 237.067 447.632 236.25 447.632 235.2C447.632 233.967 447.823 233.017 448.207 232.35C448.59 231.667 449.24 231.183 450.157 230.9C451.073 230.617 452.373 230.475 454.057 230.475H456.032V230.325C456.032 229.492 455.848 228.925 455.482 228.625C455.115 228.325 454.423 228.175 453.407 228.175C452.49 228.175 451.865 228.3 451.532 228.55C451.215 228.783 451.073 229.242 451.107 229.925H448.057C448.007 228.792 448.132 227.925 448.432 227.325C448.748 226.708 449.29 226.275 450.057 226.025C450.84 225.758 451.957 225.625 453.407 225.625C454.857 225.625 455.973 225.767 456.757 226.05C457.557 226.333 458.123 226.808 458.457 227.475C458.79 228.142 458.957 229.092 458.957 230.325V239H456.107V237.45H455.907C455.44 238.133 454.948 238.6 454.432 238.85C453.915 239.1 453.19 239.225 452.257 239.225ZM450.682 234.975C450.682 235.608 450.823 236.042 451.107 236.275C451.407 236.508 451.965 236.625 452.782 236.625C453.615 236.625 454.257 236.517 454.707 236.3C455.157 236.083 455.473 235.717 455.657 235.2C455.857 234.683 455.973 233.942 456.007 232.975L453.532 233C452.782 233.017 452.198 233.083 451.782 233.2C451.382 233.317 451.098 233.517 450.932 233.8C450.765 234.067 450.682 234.458 450.682 234.975ZM467.247 237.8H466.397L462.147 225.95H465.247L468.372 235.55H468.497L471.572 225.95H474.722L468.222 244.375H465.072L467.247 237.8ZM483.637 239.225C482.004 239.225 480.745 239.025 479.862 238.625C478.979 238.208 478.345 237.508 477.962 236.525C477.595 235.542 477.412 234.15 477.412 232.35C477.412 230.583 477.587 229.225 477.937 228.275C478.304 227.308 478.912 226.625 479.762 226.225C480.629 225.825 481.854 225.625 483.437 225.625C484.954 225.625 486.137 225.842 486.987 226.275C487.837 226.692 488.445 227.4 488.812 228.4C489.195 229.383 489.387 230.775 489.387 232.575L489.362 233.55H480.487C480.554 234.367 480.687 235 480.887 235.45C481.087 235.883 481.395 236.192 481.812 236.375C482.245 236.558 482.845 236.65 483.612 236.65C484.362 236.65 484.904 236.533 485.237 236.3C485.587 236.067 485.862 235.633 486.062 235H489.162C488.995 236.1 488.72 236.95 488.337 237.55C487.954 238.15 487.395 238.583 486.662 238.85C485.929 239.1 484.92 239.225 483.637 239.225ZM486.387 231.175C486.387 230.042 486.162 229.267 485.712 228.85C485.279 228.417 484.52 228.2 483.437 228.2C482.387 228.2 481.637 228.417 481.187 228.85C480.737 229.283 480.512 230.058 480.512 231.175H486.387ZM494.202 225.95H496.952L496.827 228.625H497.102C497.719 227.592 498.161 226.908 498.427 226.575C498.694 226.242 498.977 226.033 499.277 225.95C499.577 225.867 500.127 225.825 500.927 225.825L503.377 225.875V228.875C503.077 228.858 502.627 228.85 502.027 228.85C501.111 228.85 500.302 228.892 499.602 228.975C499.269 229.025 498.911 229.242 498.527 229.625C498.144 230.008 497.827 230.475 497.577 231.025C497.327 231.558 497.202 232.075 497.202 232.575V239H494.202V225.95Z" fill="black"/>
<rect x="201.488" y="475.965" width="455.462" height="89.4923" fill="#D8EFFF" stroke="#DCDCDC" stroke-width="2"/>
<path d="M354.125 542.225C352.275 542.225 350.85 541.967 349.85 541.45C348.85 540.917 348.133 540.033 347.7 538.8C347.283 537.55 347.075 535.783 347.075 533.5C347.075 531.2 347.275 529.433 347.675 528.2C348.075 526.95 348.742 526.067 349.675 525.55C350.625 525.017 351.967 524.75 353.7 524.75C355.25 524.75 356.458 524.9 357.325 525.2C358.192 525.5 358.817 526 359.2 526.7C359.6 527.4 359.833 528.4 359.9 529.7H356.8C356.75 529.117 356.625 528.675 356.425 528.375C356.225 528.058 355.908 527.833 355.475 527.7C355.058 527.567 354.475 527.5 353.725 527.5C352.808 527.5 352.1 527.683 351.6 528.05C351.1 528.417 350.742 529.033 350.525 529.9C350.325 530.767 350.225 531.992 350.225 533.575C350.225 535.125 350.342 536.325 350.575 537.175C350.808 538.008 351.192 538.6 351.725 538.95C352.275 539.3 353.05 539.475 354.05 539.475C354.683 539.475 355.192 539.442 355.575 539.375C355.975 539.292 356.392 539.158 356.825 538.975V535.15H353.3V532.425H359.85V540.9C358.733 541.417 357.775 541.767 356.975 541.95C356.175 542.133 355.225 542.225 354.125 542.225ZM364.29 528.95H367.04L366.915 531.625H367.19C367.807 530.592 368.249 529.908 368.515 529.575C368.782 529.242 369.065 529.033 369.365 528.95C369.665 528.867 370.215 528.825 371.015 528.825L373.465 528.875V531.875C373.165 531.858 372.715 531.85 372.115 531.85C371.199 531.85 370.39 531.892 369.69 531.975C369.357 532.025 368.999 532.242 368.615 532.625C368.232 533.008 367.915 533.475 367.665 534.025C367.415 534.558 367.29 535.075 367.29 535.575V542H364.29V528.95ZM382.305 542.225C381.089 542.225 380.147 542.108 379.48 541.875C378.83 541.625 378.364 541.217 378.08 540.65C377.814 540.067 377.68 539.25 377.68 538.2C377.68 536.967 377.872 536.017 378.255 535.35C378.639 534.667 379.289 534.183 380.205 533.9C381.122 533.617 382.422 533.475 384.105 533.475H386.08V533.325C386.08 532.492 385.897 531.925 385.53 531.625C385.164 531.325 384.472 531.175 383.455 531.175C382.539 531.175 381.914 531.3 381.58 531.55C381.264 531.783 381.122 532.242 381.155 532.925H378.105C378.055 531.792 378.18 530.925 378.48 530.325C378.797 529.708 379.339 529.275 380.105 529.025C380.889 528.758 382.005 528.625 383.455 528.625C384.905 528.625 386.022 528.767 386.805 529.05C387.605 529.333 388.172 529.808 388.505 530.475C388.839 531.142 389.005 532.092 389.005 533.325V542H386.155V540.45H385.955C385.489 541.133 384.997 541.6 384.48 541.85C383.964 542.1 383.239 542.225 382.305 542.225ZM380.73 537.975C380.73 538.608 380.872 539.042 381.155 539.275C381.455 539.508 382.014 539.625 382.83 539.625C383.664 539.625 384.305 539.517 384.755 539.3C385.205 539.083 385.522 538.717 385.705 538.2C385.905 537.683 386.022 536.942 386.055 535.975L383.58 536C382.83 536.017 382.247 536.083 381.83 536.2C381.43 536.317 381.147 536.517 380.98 536.8C380.814 537.067 380.73 537.458 380.73 537.975ZM392.221 528.95H395.246V530.225H395.446C395.979 529.625 396.479 529.217 396.946 529C397.412 528.783 398.021 528.675 398.771 528.675C400.254 528.675 401.396 528.883 402.196 529.3C402.996 529.7 403.562 530.383 403.896 531.35C404.246 532.317 404.421 533.692 404.421 535.475C404.421 537.242 404.254 538.608 403.921 539.575C403.587 540.525 403.021 541.208 402.221 541.625C401.437 542.025 400.312 542.225 398.846 542.225C397.962 542.225 397.279 542.117 396.796 541.9C396.312 541.683 395.862 541.275 395.446 540.675H395.246V547.375H392.221V528.95ZM395.196 535.475C395.196 536.558 395.279 537.4 395.446 538C395.629 538.583 395.929 539 396.346 539.25C396.762 539.5 397.354 539.625 398.121 539.625C398.971 539.625 399.621 539.5 400.071 539.25C400.537 539 400.862 538.583 401.046 538C401.246 537.4 401.346 536.558 401.346 535.475C401.346 534.375 401.246 533.525 401.046 532.925C400.862 532.325 400.537 531.9 400.071 531.65C399.621 531.4 398.971 531.275 398.121 531.275C397.354 531.275 396.762 531.4 396.346 531.65C395.929 531.9 395.629 532.325 395.446 532.925C395.279 533.525 395.196 534.375 395.196 535.475ZM407.661 523.8H410.711V530.7H410.911C411.328 529.917 411.794 529.375 412.311 529.075C412.828 528.775 413.544 528.625 414.461 528.625C415.744 528.625 416.728 528.775 417.411 529.075C418.094 529.375 418.578 529.892 418.861 530.625C419.161 531.342 419.311 532.367 419.311 533.7V542H416.261V533.65C416.261 532.717 416.086 532.083 415.736 531.75C415.403 531.4 414.761 531.225 413.811 531.225C412.994 531.225 412.361 531.342 411.911 531.575C411.478 531.808 411.169 532.208 410.986 532.775C410.803 533.342 410.711 534.15 410.711 535.2V542H407.661V523.8ZM437.991 525H441.191V539.175H449.791V541.975H437.991V525ZM457.257 542.225C456.04 542.225 455.098 542.108 454.432 541.875C453.782 541.625 453.315 541.217 453.032 540.65C452.765 540.067 452.632 539.25 452.632 538.2C452.632 536.967 452.823 536.017 453.207 535.35C453.59 534.667 454.24 534.183 455.157 533.9C456.073 533.617 457.373 533.475 459.057 533.475H461.032V533.325C461.032 532.492 460.848 531.925 460.482 531.625C460.115 531.325 459.423 531.175 458.407 531.175C457.49 531.175 456.865 531.3 456.532 531.55C456.215 531.783 456.073 532.242 456.107 532.925H453.057C453.007 531.792 453.132 530.925 453.432 530.325C453.748 529.708 454.29 529.275 455.057 529.025C455.84 528.758 456.957 528.625 458.407 528.625C459.857 528.625 460.973 528.767 461.757 529.05C462.557 529.333 463.123 529.808 463.457 530.475C463.79 531.142 463.957 532.092 463.957 533.325V542H461.107V540.45H460.907C460.44 541.133 459.948 541.6 459.432 541.85C458.915 542.1 458.19 542.225 457.257 542.225ZM455.682 537.975C455.682 538.608 455.823 539.042 456.107 539.275C456.407 539.508 456.965 539.625 457.782 539.625C458.615 539.625 459.257 539.517 459.707 539.3C460.157 539.083 460.473 538.717 460.657 538.2C460.857 537.683 460.973 536.942 461.007 535.975L458.532 536C457.782 536.017 457.198 536.083 456.782 536.2C456.382 536.317 456.098 536.517 455.932 536.8C455.765 537.067 455.682 537.458 455.682 537.975ZM472.247 540.8H471.397L467.147 528.95H470.247L473.372 538.55H473.497L476.572 528.95H479.722L473.222 547.375H470.072L472.247 540.8ZM488.637 542.225C487.004 542.225 485.745 542.025 484.862 541.625C483.979 541.208 483.345 540.508 482.962 539.525C482.595 538.542 482.412 537.15 482.412 535.35C482.412 533.583 482.587 532.225 482.937 531.275C483.304 530.308 483.912 529.625 484.762 529.225C485.629 528.825 486.854 528.625 488.437 528.625C489.954 528.625 491.137 528.842 491.987 529.275C492.837 529.692 493.445 530.4 493.812 531.4C494.195 532.383 494.387 533.775 494.387 535.575L494.362 536.55H485.487C485.554 537.367 485.687 538 485.887 538.45C486.087 538.883 486.395 539.192 486.812 539.375C487.245 539.558 487.845 539.65 488.612 539.65C489.362 539.65 489.904 539.533 490.237 539.3C490.587 539.067 490.862 538.633 491.062 538H494.162C493.995 539.1 493.72 539.95 493.337 540.55C492.954 541.15 492.395 541.583 491.662 541.85C490.929 542.1 489.92 542.225 488.637 542.225ZM491.387 534.175C491.387 533.042 491.162 532.267 490.712 531.85C490.279 531.417 489.52 531.2 488.437 531.2C487.387 531.2 486.637 531.417 486.187 531.85C485.737 532.283 485.512 533.058 485.512 534.175H491.387ZM499.202 528.95H501.952L501.827 531.625H502.102C502.719 530.592 503.161 529.908 503.427 529.575C503.694 529.242 503.977 529.033 504.277 528.95C504.577 528.867 505.127 528.825 505.927 528.825L508.377 528.875V531.875C508.077 531.858 507.627 531.85 507.027 531.85C506.111 531.85 505.302 531.892 504.602 531.975C504.269 532.025 503.911 532.242 503.527 532.625C503.144 533.008 502.827 533.475 502.577 534.025C502.327 534.558 502.202 535.075 502.202 535.575V542H499.202V528.95Z" fill="black"/>
<rect x="201.488" y="302.527" width="455.462" height="149.957" fill="white" stroke="#DCDCDC" stroke-width="2"/>
<line x1="79.5586" y1="376.494" x2="785.243" y2="376.494" stroke="#533AE9" stroke-width="6" stroke-dasharray="12 12"/>
<rect x="319.825" y="338.124" width="222.764" height="79.5585" fill="white"/>
<path d="M356.55 382.225C354.817 382.225 353.475 382.067 352.525 381.75C351.592 381.433 350.933 380.892 350.55 380.125C350.167 379.358 350 378.275 350.05 376.875H353.175C353.225 377.575 353.358 378.117 353.575 378.5C353.792 378.867 354.142 379.125 354.625 379.275C355.125 379.425 355.833 379.5 356.75 379.5C357.55 379.5 358.167 379.442 358.6 379.325C359.05 379.208 359.367 379.008 359.55 378.725C359.733 378.425 359.825 378.008 359.825 377.475C359.825 376.975 359.692 376.55 359.425 376.2C359.158 375.85 358.717 375.533 358.1 375.25C357.5 374.95 356.642 374.633 355.525 374.3C354.125 373.883 353.042 373.467 352.275 373.05C351.525 372.617 350.992 372.108 350.675 371.525C350.358 370.942 350.2 370.2 350.2 369.3C350.2 368.117 350.383 367.2 350.75 366.55C351.133 365.9 351.767 365.442 352.65 365.175C353.55 364.892 354.817 364.75 356.45 364.75C358.05 364.75 359.283 364.892 360.15 365.175C361.033 365.458 361.667 365.942 362.05 366.625C362.433 367.308 362.617 368.283 362.6 369.55H359.425C359.375 369 359.25 368.583 359.05 368.3C358.867 368 358.558 367.792 358.125 367.675C357.708 367.542 357.117 367.475 356.35 367.475C355.55 367.475 354.933 367.533 354.5 367.65C354.083 367.767 353.783 367.958 353.6 368.225C353.417 368.492 353.325 368.883 353.325 369.4C353.325 369.883 353.642 370.317 354.275 370.7C354.925 371.067 356.075 371.508 357.725 372.025C359.092 372.458 360.142 372.9 360.875 373.35C361.625 373.8 362.158 374.35 362.475 375C362.792 375.633 362.95 376.45 362.95 377.45C362.95 378.7 362.758 379.667 362.375 380.35C361.992 381.033 361.342 381.517 360.425 381.8C359.525 382.083 358.233 382.225 356.55 382.225ZM370.315 380.8H369.465L365.215 368.95H368.315L371.44 378.55H371.565L374.64 368.95H377.79L371.29 387.375H368.14L370.315 380.8ZM380.68 368.95H383.73V370.75H383.93C384.397 369.933 384.88 369.375 385.38 369.075C385.88 368.775 386.589 368.625 387.505 368.625C388.772 368.625 389.747 368.783 390.43 369.1C391.114 369.4 391.597 369.917 391.88 370.65C392.18 371.367 392.33 372.4 392.33 373.75V382H389.28V373.7C389.28 372.783 389.105 372.158 388.755 371.825C388.422 371.492 387.789 371.325 386.855 371.325C386.039 371.325 385.405 371.442 384.955 371.675C384.522 371.908 384.205 372.308 384.005 372.875C383.822 373.425 383.73 374.208 383.73 375.225V382H380.68V368.95ZM401.921 382.225C400.271 382.225 398.996 382.025 398.096 381.625C397.196 381.225 396.554 380.55 396.171 379.6C395.804 378.633 395.621 377.267 395.621 375.5C395.621 373.7 395.804 372.308 396.171 371.325C396.554 370.342 397.187 369.65 398.071 369.25C398.971 368.833 400.237 368.625 401.871 368.625C403.304 368.625 404.412 368.767 405.196 369.05C405.979 369.333 406.537 369.817 406.871 370.5C407.221 371.167 407.412 372.117 407.446 373.35H404.421C404.304 372.533 404.071 371.983 403.721 371.7C403.387 371.4 402.821 371.25 402.021 371.25C401.137 371.25 400.454 371.383 399.971 371.65C399.504 371.9 399.171 372.333 398.971 372.95C398.771 373.55 398.671 374.408 398.671 375.525C398.671 376.592 398.771 377.417 398.971 378C399.171 378.583 399.512 379 399.996 379.25C400.479 379.483 401.162 379.6 402.046 379.6C402.812 379.6 403.362 379.475 403.696 379.225C404.046 378.958 404.296 378.475 404.446 377.775H407.446C407.412 378.942 407.221 379.842 406.871 380.475C406.537 381.108 405.979 381.558 405.196 381.825C404.429 382.092 403.337 382.225 401.921 382.225ZM426.351 365H436.901V367.75H429.551V371.8H435.901V374.55H429.551V379.25H437.401V382H426.351V365ZM440.641 368.95H443.691V370.75H443.891C444.358 369.933 444.841 369.375 445.341 369.075C445.841 368.775 446.55 368.625 447.466 368.625C448.733 368.625 449.708 368.783 450.391 369.1C451.075 369.4 451.558 369.917 451.841 370.65C452.141 371.367 452.291 372.4 452.291 373.75V382H449.241V373.7C449.241 372.783 449.066 372.158 448.716 371.825C448.383 371.492 447.75 371.325 446.816 371.325C446 371.325 445.366 371.442 444.916 371.675C444.483 371.908 444.166 372.308 443.966 372.875C443.783 373.425 443.691 374.208 443.691 375.225V382H440.641V368.95ZM461.482 387.5C459.982 387.5 458.823 387.367 458.007 387.1C457.19 386.833 456.607 386.383 456.257 385.75C455.907 385.133 455.715 384.25 455.682 383.1H458.757C458.79 383.617 458.882 384.008 459.032 384.275C459.182 384.542 459.44 384.725 459.807 384.825C460.19 384.942 460.757 385 461.507 385C462.257 385 462.832 384.908 463.232 384.725C463.648 384.558 463.94 384.267 464.107 383.85C464.273 383.45 464.365 382.875 464.382 382.125L464.407 380.225H464.207C463.973 380.725 463.723 381.108 463.457 381.375C463.19 381.625 462.832 381.808 462.382 381.925C461.948 382.025 461.348 382.075 460.582 382.075C459.215 382.075 458.148 381.875 457.382 381.475C456.615 381.075 456.057 380.408 455.707 379.475C455.373 378.525 455.207 377.192 455.207 375.475C455.207 373.692 455.373 372.317 455.707 371.35C456.057 370.383 456.64 369.7 457.457 369.3C458.29 368.883 459.457 368.675 460.957 368.675C461.907 368.675 462.607 368.808 463.057 369.075C463.523 369.325 463.923 369.8 464.257 370.5H464.457V368.95H467.382V382.375C467.382 383.725 467.207 384.758 466.857 385.475C466.507 386.208 465.907 386.725 465.057 387.025C464.223 387.342 463.032 387.5 461.482 387.5ZM458.257 375.475C458.257 376.525 458.348 377.342 458.532 377.925C458.715 378.492 459.023 378.9 459.457 379.15C459.907 379.383 460.532 379.5 461.332 379.5C462.132 379.5 462.748 379.383 463.182 379.15C463.615 378.9 463.923 378.492 464.107 377.925C464.29 377.342 464.382 376.525 464.382 375.475C464.382 374.375 464.29 373.525 464.107 372.925C463.923 372.325 463.615 371.9 463.182 371.65C462.748 371.383 462.132 371.25 461.332 371.25C460.532 371.25 459.907 371.383 459.457 371.65C459.023 371.9 458.715 372.325 458.532 372.925C458.348 373.525 458.257 374.375 458.257 375.475ZM474.797 363.8H478.622V367.325H474.797V363.8ZM471.172 379.425H475.522V371.525H471.422V368.95H478.522V379.425H482.697V382H471.172V379.425ZM485.612 368.95H488.662V370.75H488.862C489.329 369.933 489.812 369.375 490.312 369.075C490.812 368.775 491.52 368.625 492.437 368.625C493.704 368.625 494.679 368.783 495.362 369.1C496.045 369.4 496.529 369.917 496.812 370.65C497.112 371.367 497.262 372.4 497.262 373.75V382H494.212V373.7C494.212 372.783 494.037 372.158 493.687 371.825C493.354 371.492 492.72 371.325 491.787 371.325C490.97 371.325 490.337 371.442 489.887 371.675C489.454 371.908 489.137 372.308 488.937 372.875C488.754 373.425 488.662 374.208 488.662 375.225V382H485.612V368.95ZM506.627 382.225C504.994 382.225 503.736 382.025 502.852 381.625C501.969 381.208 501.336 380.508 500.952 379.525C500.586 378.542 500.402 377.15 500.402 375.35C500.402 373.583 500.577 372.225 500.927 371.275C501.294 370.308 501.902 369.625 502.752 369.225C503.619 368.825 504.844 368.625 506.427 368.625C507.944 368.625 509.127 368.842 509.977 369.275C510.827 369.692 511.436 370.4 511.802 371.4C512.186 372.383 512.377 373.775 512.377 375.575L512.352 376.55H503.477C503.544 377.367 503.677 378 503.877 378.45C504.077 378.883 504.386 379.192 504.802 379.375C505.236 379.558 505.836 379.65 506.602 379.65C507.352 379.65 507.894 379.533 508.227 379.3C508.577 379.067 508.852 378.633 509.052 378H512.152C511.986 379.1 511.711 379.95 511.327 380.55C510.944 381.15 510.386 381.583 509.652 381.85C508.919 382.1 507.911 382.225 506.627 382.225ZM509.377 374.175C509.377 373.042 509.152 372.267 508.702 371.85C508.269 371.417 507.511 371.2 506.427 371.2C505.377 371.2 504.627 371.417 504.177 371.85C503.727 372.283 503.502 373.058 503.502 374.175H509.377Z" fill="black"/>
<path d="M49.385 345.312C48.361 345.312 47.5716 345.227 47.017 345.056C46.473 344.885 46.089 344.592 45.865 344.176C45.641 343.76 45.5396 343.173 45.561 342.416H47.529C47.5396 342.747 47.6036 343.003 47.721 343.184C47.8383 343.355 48.0356 343.477 48.313 343.552C48.601 343.627 49.0063 343.664 49.529 343.664C50.1583 343.664 50.5903 343.605 50.825 343.488C51.0596 343.36 51.177 343.131 51.177 342.8C51.177 342.587 51.1076 342.411 50.969 342.272C50.841 342.123 50.617 341.995 50.297 341.888C49.977 341.781 49.5236 341.675 48.937 341.568C48.0836 341.408 47.4223 341.232 46.953 341.04C46.4943 340.837 46.1636 340.587 45.961 340.288C45.769 339.979 45.673 339.573 45.673 339.072C45.673 338.421 45.7796 337.925 45.993 337.584C46.217 337.232 46.5903 336.981 47.113 336.832C47.6463 336.683 48.393 336.608 49.353 336.608C50.2916 336.608 51.017 336.688 51.529 336.848C52.041 336.997 52.4036 337.259 52.617 337.632C52.8303 337.995 52.9423 338.517 52.953 339.2H51.033C51.0116 338.837 50.8783 338.592 50.633 338.464C50.3983 338.325 49.9663 338.256 49.337 338.256C48.6756 338.256 48.2223 338.315 47.977 338.432C47.7316 338.549 47.609 338.768 47.609 339.088C47.609 339.259 47.7743 339.413 48.105 339.552C48.4463 339.68 49.1023 339.856 50.073 340.08C50.873 340.261 51.4916 340.464 51.929 340.688C52.3663 340.901 52.6756 341.173 52.857 341.504C53.049 341.835 53.145 342.261 53.145 342.784C53.145 343.445 53.033 343.957 52.809 344.32C52.585 344.683 52.201 344.939 51.657 345.088C51.1236 345.237 50.3663 345.312 49.385 345.312ZM59.0907 345.312C58.0454 345.312 57.2401 345.184 56.6747 344.928C56.1094 344.661 55.7041 344.213 55.4587 343.584C55.2241 342.955 55.1067 342.064 55.1067 340.912C55.1067 339.781 55.2187 338.912 55.4427 338.304C55.6774 337.685 56.0667 337.248 56.6107 336.992C57.1654 336.736 57.9494 336.608 58.9627 336.608C59.9334 336.608 60.6907 336.747 61.2347 337.024C61.7787 337.291 62.1681 337.744 62.4027 338.384C62.6481 339.013 62.7707 339.904 62.7707 341.056L62.7547 341.68H57.0747C57.1174 342.203 57.2027 342.608 57.3307 342.896C57.4587 343.173 57.6561 343.371 57.9227 343.488C58.2001 343.605 58.5841 343.664 59.0747 343.664C59.5547 343.664 59.9014 343.589 60.1147 343.44C60.3387 343.291 60.5147 343.013 60.6427 342.608H62.6267C62.5201 343.312 62.3441 343.856 62.0987 344.24C61.8534 344.624 61.4961 344.901 61.0267 345.072C60.5574 345.232 59.9121 345.312 59.0907 345.312ZM60.8507 340.16C60.8507 339.435 60.7067 338.939 60.4187 338.672C60.1414 338.395 59.6561 338.256 58.9627 338.256C58.2907 338.256 57.8107 338.395 57.5227 338.672C57.2347 338.949 57.0907 339.445 57.0907 340.16H60.8507ZM65.8525 336.816H67.6125L67.5325 338.528H67.7085C68.1031 337.867 68.3858 337.429 68.5565 337.216C68.7271 337.003 68.9085 336.869 69.1005 336.816C69.2925 336.763 69.6445 336.736 70.1565 336.736L71.7245 336.768V338.688C71.5325 338.677 71.2445 338.672 70.8605 338.672C70.2738 338.672 69.7565 338.699 69.3085 338.752C69.0951 338.784 68.8658 338.923 68.6205 339.168C68.3751 339.413 68.1725 339.712 68.0125 340.064C67.8525 340.405 67.7725 340.736 67.7725 341.056V345.168H65.8525V336.816ZM73.7502 336.816H75.7822L78.0702 342.816H78.1982L80.4862 336.816H82.5182L79.0782 345.168H77.1902L73.7502 336.816ZM87.872 345.312C86.8266 345.312 86.0213 345.184 85.456 344.928C84.8906 344.661 84.4853 344.213 84.24 343.584C84.0053 342.955 83.888 342.064 83.888 340.912C83.888 339.781 84 338.912 84.224 338.304C84.4586 337.685 84.848 337.248 85.392 336.992C85.9466 336.736 86.7306 336.608 87.744 336.608C88.7146 336.608 89.472 336.747 90.016 337.024C90.56 337.291 90.9493 337.744 91.184 338.384C91.4293 339.013 91.552 339.904 91.552 341.056L91.536 341.68H85.856C85.8986 342.203 85.984 342.608 86.112 342.896C86.24 343.173 86.4373 343.371 86.704 343.488C86.9813 343.605 87.3653 343.664 87.856 343.664C88.336 343.664 88.6826 343.589 88.896 343.44C89.12 343.291 89.296 343.013 89.424 342.608H91.408C91.3013 343.312 91.1253 343.856 90.88 344.24C90.6346 344.624 90.2773 344.901 89.808 345.072C89.3386 345.232 88.6933 345.312 87.872 345.312ZM89.632 340.16C89.632 339.435 89.488 338.939 89.2 338.672C88.9226 338.395 88.4373 338.256 87.744 338.256C87.072 338.256 86.592 338.395 86.304 338.672C86.016 338.949 85.872 339.445 85.872 340.16H89.632ZM94.6337 336.816H96.3937L96.3137 338.528H96.4897C96.8844 337.867 97.1671 337.429 97.3377 337.216C97.5084 337.003 97.6897 336.869 97.8817 336.816C98.0737 336.763 98.4257 336.736 98.9377 336.736L100.506 336.768V338.688C100.314 338.677 100.026 338.672 99.6417 338.672C99.0551 338.672 98.5377 338.699 98.0897 338.752C97.8764 338.784 97.6471 338.923 97.4017 339.168C97.1564 339.413 96.9537 339.712 96.7937 340.064C96.6337 340.405 96.5537 340.736 96.5537 341.056V345.168H94.6337V336.816Z" fill="black"/>
<path d="M48.8453 416.119C47.7893 416.119 46.9733 415.991 46.3973 415.735C45.8213 415.479 45.4107 415.047 45.1653 414.439C44.9307 413.82 44.8133 412.946 44.8133 411.815C44.8133 410.663 44.9307 409.772 45.1653 409.143C45.4107 408.514 45.816 408.071 46.3813 407.815C46.9573 407.548 47.768 407.415 48.8133 407.415C49.7307 407.415 50.44 407.506 50.9413 407.687C51.4427 407.868 51.8 408.178 52.0133 408.615C52.2373 409.042 52.36 409.65 52.3813 410.439H50.4453C50.3707 409.916 50.2213 409.564 49.9973 409.383C49.784 409.191 49.4213 409.095 48.9093 409.095C48.344 409.095 47.9067 409.18 47.5973 409.351C47.2987 409.511 47.0853 409.788 46.9573 410.183C46.8293 410.567 46.7653 411.116 46.7653 411.831C46.7653 412.514 46.8293 413.042 46.9573 413.415C47.0853 413.788 47.304 414.055 47.6133 414.215C47.9227 414.364 48.36 414.439 48.9253 414.439C49.416 414.439 49.768 414.359 49.9813 414.199C50.2053 414.028 50.3653 413.719 50.4613 413.271H52.3813C52.36 414.018 52.2373 414.594 52.0133 414.999C51.8 415.404 51.4427 415.692 50.9413 415.863C50.4507 416.034 49.752 416.119 48.8453 416.119ZM54.4231 414.311H57.3511V405.991H54.5831V404.327H59.2711V414.311H62.0071V415.975H54.4231V414.311ZM66.7048 404.327H69.1528V406.583H66.7048V404.327ZM64.3848 414.327H67.1688V409.271H64.5448V407.623H69.0888V414.327H71.7608V415.975H64.3848V414.327ZM77.4826 416.119C76.4372 416.119 75.6319 415.991 75.0666 415.735C74.5012 415.468 74.0959 415.02 73.8506 414.391C73.6159 413.762 73.4986 412.871 73.4986 411.719C73.4986 410.588 73.6106 409.719 73.8346 409.111C74.0692 408.492 74.4586 408.055 75.0026 407.799C75.5572 407.543 76.3412 407.415 77.3546 407.415C78.3252 407.415 79.0826 407.554 79.6266 407.831C80.1706 408.098 80.5599 408.551 80.7946 409.191C81.0399 409.82 81.1626 410.711 81.1626 411.863L81.1466 412.487H75.4666C75.5092 413.01 75.5946 413.415 75.7226 413.703C75.8506 413.98 76.0479 414.178 76.3146 414.295C76.5919 414.412 76.9759 414.471 77.4666 414.471C77.9466 414.471 78.2932 414.396 78.5066 414.247C78.7306 414.098 78.9066 413.82 79.0346 413.415H81.0186C80.9119 414.119 80.7359 414.663 80.4906 415.047C80.2452 415.431 79.8879 415.708 79.4186 415.879C78.9492 416.039 78.3039 416.119 77.4826 416.119ZM79.2426 410.967C79.2426 410.242 79.0986 409.746 78.8106 409.479C78.5332 409.202 78.0479 409.063 77.3546 409.063C76.6826 409.063 76.2026 409.202 75.9146 409.479C75.6266 409.756 75.4826 410.252 75.4826 410.967H79.2426ZM83.2203 407.623H85.1723V408.775H85.3003C85.599 408.252 85.9083 407.895 86.2283 407.703C86.5483 407.511 87.0017 407.415 87.5883 407.415C88.399 407.415 89.023 407.516 89.4603 407.719C89.8977 407.911 90.207 408.242 90.3883 408.711C90.5803 409.17 90.6763 409.831 90.6763 410.695V415.975H88.7243V410.663C88.7243 410.076 88.6123 409.676 88.3883 409.463C88.175 409.25 87.7697 409.143 87.1723 409.143C86.6497 409.143 86.2443 409.218 85.9563 409.367C85.679 409.516 85.4763 409.772 85.3483 410.135C85.231 410.487 85.1723 410.988 85.1723 411.639V415.975H83.2203V407.623ZM97.5661 416.151C96.7981 416.151 96.2167 416.05 95.8221 415.847C95.4274 415.644 95.1607 415.346 95.0221 414.951C94.8834 414.546 94.8141 413.996 94.8141 413.303V409.271H92.7501L93.1341 407.623H94.8781V405.927L96.7341 405.143V407.623H99.8541V409.271H96.7341V413.239C96.7341 413.58 96.7607 413.831 96.8141 413.991C96.8781 414.151 97.0061 414.268 97.1981 414.343C97.4007 414.418 97.7047 414.455 98.1101 414.455C98.5687 414.455 99.2354 414.391 100.11 414.263V415.943C99.0007 416.082 98.1527 416.151 97.5661 416.151Z" fill="black"/>
</svg>
