<svg width="585" height="188" viewBox="0 0 585 188" fill="none" xmlns="http://www.w3.org/2000/svg">
<rect width="585" height="188" fill="white"/>
<rect x="36" y="43" width="103" height="103" fill="black"/>
<rect x="54.9297" y="61.3729" width="27.8378" height="66.8108" fill="white"/>
<path d="M192.15 63.48H205.92V76.17H192.15V63.48ZM179.1 119.73H194.76V91.29H180V82.02H205.56V119.73H220.59V129H179.1V119.73ZM231.085 82.02H242.065V88.5H242.785C244.465 85.56 246.205 83.55 248.005 82.47C249.805 81.39 252.355 80.85 255.655 80.85C260.215 80.85 263.725 81.42 266.185 82.56C268.645 83.64 270.385 85.5 271.405 88.14C272.485 90.72 273.025 94.44 273.025 99.3V129H262.045V99.12C262.045 95.82 261.415 93.57 260.155 92.37C258.955 91.17 256.675 90.57 253.315 90.57C250.375 90.57 248.095 90.99 246.475 91.83C244.915 92.67 243.775 94.11 243.055 96.15C242.395 98.13 242.065 100.95 242.065 104.61V129H231.085V82.02ZM306.11 129.81C300.35 129.81 295.91 129.33 292.79 128.37C289.73 127.41 287.57 125.76 286.31 123.42C285.05 121.08 284.48 117.78 284.6 113.52H295.67C295.73 115.38 296.09 116.82 296.75 117.84C297.41 118.8 298.52 119.49 300.08 119.91C301.7 120.33 303.98 120.54 306.92 120.54C310.46 120.54 312.89 120.21 314.21 119.55C315.53 118.83 316.19 117.54 316.19 115.68C316.19 114.48 315.8 113.49 315.02 112.71C314.3 111.87 313.04 111.15 311.24 110.55C309.44 109.95 306.89 109.35 303.59 108.75C298.79 107.85 295.07 106.86 292.43 105.78C289.85 104.64 287.99 103.23 286.85 101.55C285.77 99.81 285.23 97.53 285.23 94.71C285.23 91.05 285.83 88.26 287.03 86.34C288.29 84.36 290.39 82.95 293.33 82.11C296.33 81.27 300.53 80.85 305.93 80.85C311.21 80.85 315.29 81.3 318.17 82.2C321.05 83.04 323.09 84.51 324.29 86.61C325.49 88.65 326.12 91.59 326.18 95.43H315.38C315.26 93.39 314.51 92.01 313.13 91.29C311.81 90.51 309.38 90.12 305.84 90.12C302.12 90.12 299.57 90.45 298.19 91.11C296.81 91.77 296.12 93 296.12 94.8C296.12 95.76 297.05 96.63 298.91 97.41C300.83 98.13 304.52 99.12 309.98 100.38C314.48 101.4 317.96 102.54 320.42 103.8C322.88 105 324.62 106.53 325.64 108.39C326.72 110.25 327.26 112.65 327.26 115.59C327.26 119.31 326.63 122.19 325.37 124.23C324.11 126.27 321.95 127.71 318.89 128.55C315.89 129.39 311.63 129.81 306.11 129.81ZM365.745 129.99C361.425 129.99 358.155 129.42 355.935 128.28C353.715 127.14 352.215 125.46 351.435 123.24C350.655 120.96 350.265 117.87 350.265 113.97V91.29H338.655L340.815 82.02H350.625V72.48L361.065 68.07V82.02H378.615V91.29H361.065V113.61C361.065 115.53 361.215 116.94 361.515 117.84C361.875 118.74 362.595 119.4 363.675 119.82C364.815 120.24 366.525 120.45 368.805 120.45C371.385 120.45 375.135 120.09 380.055 119.37V128.82C373.815 129.6 369.045 129.99 365.745 129.99ZM409.629 129.81C405.249 129.81 401.859 129.39 399.459 128.55C397.119 127.65 395.439 126.18 394.419 124.14C393.459 122.04 392.979 119.1 392.979 115.32C392.979 110.88 393.669 107.46 395.049 105.06C396.429 102.6 398.769 100.86 402.069 99.84C405.369 98.82 410.049 98.31 416.109 98.31H423.219V97.77C423.219 94.77 422.559 92.73 421.239 91.65C419.919 90.57 417.429 90.03 413.769 90.03C410.469 90.03 408.219 90.48 407.019 91.38C405.879 92.22 405.369 93.87 405.489 96.33H394.509C394.329 92.25 394.779 89.13 395.859 86.97C396.999 84.75 398.949 83.19 401.709 82.29C404.529 81.33 408.549 80.85 413.769 80.85C418.989 80.85 423.009 81.36 425.829 82.38C428.709 83.4 430.749 85.11 431.949 87.51C433.149 89.91 433.749 93.33 433.749 97.77V129H423.489V123.42H422.769C421.089 125.88 419.319 127.56 417.459 128.46C415.599 129.36 412.989 129.81 409.629 129.81ZM403.959 114.51C403.959 116.79 404.469 118.35 405.489 119.19C406.569 120.03 408.579 120.45 411.519 120.45C414.519 120.45 416.829 120.06 418.449 119.28C420.069 118.5 421.209 117.18 421.869 115.32C422.589 113.46 423.009 110.79 423.129 107.31L414.219 107.4C411.519 107.46 409.419 107.7 407.919 108.12C406.479 108.54 405.459 109.26 404.859 110.28C404.259 111.24 403.959 112.65 403.959 114.51ZM446.944 82.02H457.924V88.5H458.644C460.324 85.56 462.064 83.55 463.864 82.47C465.664 81.39 468.214 80.85 471.514 80.85C476.074 80.85 479.584 81.42 482.044 82.56C484.504 83.64 486.244 85.5 487.264 88.14C488.344 90.72 488.884 94.44 488.884 99.3V129H477.904V99.12C477.904 95.82 477.274 93.57 476.014 92.37C474.814 91.17 472.534 90.57 469.174 90.57C466.234 90.57 463.954 90.99 462.334 91.83C460.774 92.67 459.634 94.11 458.914 96.15C458.254 98.13 457.924 100.95 457.924 104.61V129H446.944V82.02ZM527.639 129.99C523.319 129.99 520.049 129.42 517.829 128.28C515.609 127.14 514.109 125.46 513.329 123.24C512.549 120.96 512.159 117.87 512.159 113.97V91.29H500.549L502.709 82.02H512.519V72.48L522.959 68.07V82.02H540.509V91.29H522.959V113.61C522.959 115.53 523.109 116.94 523.409 117.84C523.769 118.74 524.489 119.4 525.569 119.82C526.709 120.24 528.419 120.45 530.699 120.45C533.279 120.45 537.029 120.09 541.949 119.37V128.82C535.709 129.6 530.939 129.99 527.639 129.99Z" fill="black"/>
</svg>
