<svg width="829" height="151" viewBox="0 0 829 151" fill="none" xmlns="http://www.w3.org/2000/svg">
<rect width="829" height="151" fill="white"/>
<rect x="165" y="24" width="103" height="103" fill="black"/>
<rect x="183.93" y="42.373" width="27.8378" height="66.8108" fill="white"/>
<path d="M321.15 44.48H334.92V57.17H321.15V44.48ZM308.1 100.73H323.76V72.29H309V63.02H334.56V100.73H349.59V110H308.1V100.73ZM360.085 63.02H371.065V69.5H371.785C373.465 66.56 375.205 64.55 377.005 63.47C378.805 62.39 381.355 61.85 384.655 61.85C389.215 61.85 392.725 62.42 395.185 63.56C397.645 64.64 399.385 66.5 400.405 69.14C401.485 71.72 402.025 75.44 402.025 80.3V110H391.045V80.12C391.045 76.82 390.415 74.57 389.155 73.37C387.955 72.17 385.675 71.57 382.315 71.57C379.375 71.57 377.095 71.99 375.475 72.83C373.915 73.67 372.775 75.11 372.055 77.15C371.395 79.13 371.065 81.95 371.065 85.61V110H360.085V63.02ZM435.11 110.81C429.35 110.81 424.91 110.33 421.79 109.37C418.73 108.41 416.57 106.76 415.31 104.42C414.05 102.08 413.48 98.78 413.6 94.52H424.67C424.73 96.38 425.09 97.82 425.75 98.84C426.41 99.8 427.52 100.49 429.08 100.91C430.7 101.33 432.98 101.54 435.92 101.54C439.46 101.54 441.89 101.21 443.21 100.55C444.53 99.83 445.19 98.54 445.19 96.68C445.19 95.48 444.8 94.49 444.02 93.71C443.3 92.87 442.04 92.15 440.24 91.55C438.44 90.95 435.89 90.35 432.59 89.75C427.79 88.85 424.07 87.86 421.43 86.78C418.85 85.64 416.99 84.23 415.85 82.55C414.77 80.81 414.23 78.53 414.23 75.71C414.23 72.05 414.83 69.26 416.03 67.34C417.29 65.36 419.39 63.95 422.33 63.11C425.33 62.27 429.53 61.85 434.93 61.85C440.21 61.85 444.29 62.3 447.17 63.2C450.05 64.04 452.09 65.51 453.29 67.61C454.49 69.65 455.12 72.59 455.18 76.43H444.38C444.26 74.39 443.51 73.01 442.13 72.29C440.81 71.51 438.38 71.12 434.84 71.12C431.12 71.12 428.57 71.45 427.19 72.11C425.81 72.77 425.12 74 425.12 75.8C425.12 76.76 426.05 77.63 427.91 78.41C429.83 79.13 433.52 80.12 438.98 81.38C443.48 82.4 446.96 83.54 449.42 84.8C451.88 86 453.62 87.53 454.64 89.39C455.72 91.25 456.26 93.65 456.26 96.59C456.26 100.31 455.63 103.19 454.37 105.23C453.11 107.27 450.95 108.71 447.89 109.55C444.89 110.39 440.63 110.81 435.11 110.81ZM494.745 110.99C490.425 110.99 487.155 110.42 484.935 109.28C482.715 108.14 481.215 106.46 480.435 104.24C479.655 101.96 479.265 98.87 479.265 94.97V72.29H467.655L469.815 63.02H479.625V53.48L490.065 49.07V63.02H507.615V72.29H490.065V94.61C490.065 96.53 490.215 97.94 490.515 98.84C490.875 99.74 491.595 100.4 492.675 100.82C493.815 101.24 495.525 101.45 497.805 101.45C500.385 101.45 504.135 101.09 509.055 100.37V109.82C502.815 110.6 498.045 110.99 494.745 110.99ZM538.629 110.81C534.249 110.81 530.859 110.39 528.459 109.55C526.119 108.65 524.439 107.18 523.419 105.14C522.459 103.04 521.979 100.1 521.979 96.32C521.979 91.88 522.669 88.46 524.049 86.06C525.429 83.6 527.769 81.86 531.069 80.84C534.369 79.82 539.049 79.31 545.109 79.31H552.219V78.77C552.219 75.77 551.559 73.73 550.239 72.65C548.919 71.57 546.429 71.03 542.769 71.03C539.469 71.03 537.219 71.48 536.019 72.38C534.879 73.22 534.369 74.87 534.489 77.33H523.509C523.329 73.25 523.779 70.13 524.859 67.97C525.999 65.75 527.949 64.19 530.709 63.29C533.529 62.33 537.549 61.85 542.769 61.85C547.989 61.85 552.009 62.36 554.829 63.38C557.709 64.4 559.749 66.11 560.949 68.51C562.149 70.91 562.749 74.33 562.749 78.77V110H552.489V104.42H551.769C550.089 106.88 548.319 108.56 546.459 109.46C544.599 110.36 541.989 110.81 538.629 110.81ZM532.959 95.51C532.959 97.79 533.469 99.35 534.489 100.19C535.569 101.03 537.579 101.45 540.519 101.45C543.519 101.45 545.829 101.06 547.449 100.28C549.069 99.5 550.209 98.18 550.869 96.32C551.589 94.46 552.009 91.79 552.129 88.31L543.219 88.4C540.519 88.46 538.419 88.7 536.919 89.12C535.479 89.54 534.459 90.26 533.859 91.28C533.259 92.24 532.959 93.65 532.959 95.51ZM575.944 63.02H586.924V69.5H587.644C589.324 66.56 591.064 64.55 592.864 63.47C594.664 62.39 597.214 61.85 600.514 61.85C605.074 61.85 608.584 62.42 611.044 63.56C613.504 64.64 615.244 66.5 616.264 69.14C617.344 71.72 617.884 75.44 617.884 80.3V110H606.904V80.12C606.904 76.82 606.274 74.57 605.014 73.37C603.814 72.17 601.534 71.57 598.174 71.57C595.234 71.57 592.954 71.99 591.334 72.83C589.774 73.67 588.634 75.11 587.914 77.15C587.254 79.13 586.924 81.95 586.924 85.61V110H575.944V63.02ZM656.639 110.99C652.319 110.99 649.049 110.42 646.829 109.28C644.609 108.14 643.109 106.46 642.329 104.24C641.549 101.96 641.159 98.87 641.159 94.97V72.29H629.549L631.709 63.02H641.519V53.48L651.959 49.07V63.02H669.509V72.29H651.959V94.61C651.959 96.53 652.109 97.94 652.409 98.84C652.769 99.74 653.489 100.4 654.569 100.82C655.709 101.24 657.419 101.45 659.699 101.45C662.279 101.45 666.029 101.09 670.949 100.37V109.82C664.709 110.6 659.939 110.99 656.639 110.99Z" fill="black"/>
</svg>
