<svg width="690" height="187" viewBox="0 0 690 187" fill="none" xmlns="http://www.w3.org/2000/svg">
<path d="M293.5 59.2H308.8V73.3H293.5V59.2ZM279 121.7H296.4V90.1H280V79.8H308.4V121.7H325.1V132H279V121.7ZM336.761 79.8H348.961V87H349.761C351.628 83.7333 353.561 81.5 355.561 80.3C357.561 79.1 360.394 78.5 364.061 78.5C369.128 78.5 373.028 79.1333 375.761 80.4C378.494 81.6 380.428 83.6667 381.561 86.6C382.761 89.4667 383.361 93.6 383.361 99V132H371.161V98.8C371.161 95.1333 370.461 92.6333 369.061 91.3C367.728 89.9667 365.194 89.3 361.461 89.3C358.194 89.3 355.661 89.7667 353.861 90.7C352.128 91.6333 350.861 93.2333 350.061 95.5C349.328 97.7 348.961 100.833 348.961 104.9V132H336.761V79.8ZM420.122 132.9C413.722 132.9 408.789 132.367 405.322 131.3C401.922 130.233 399.522 128.4 398.122 125.8C396.722 123.2 396.089 119.533 396.222 114.8H408.522C408.589 116.867 408.989 118.467 409.722 119.6C410.455 120.667 411.689 121.433 413.422 121.9C415.222 122.367 417.755 122.6 421.022 122.6C424.955 122.6 427.655 122.233 429.122 121.5C430.589 120.7 431.322 119.267 431.322 117.2C431.322 115.867 430.889 114.767 430.022 113.9C429.222 112.967 427.822 112.167 425.822 111.5C423.822 110.833 420.989 110.167 417.322 109.5C411.989 108.5 407.855 107.4 404.922 106.2C402.055 104.933 399.989 103.367 398.722 101.5C397.522 99.5667 396.922 97.0333 396.922 93.9C396.922 89.8333 397.589 86.7333 398.922 84.6C400.322 82.4 402.655 80.8333 405.922 79.9C409.255 78.9667 413.922 78.5 419.922 78.5C425.789 78.5 430.322 79 433.522 80C436.722 80.9333 438.989 82.5667 440.322 84.9C441.655 87.1667 442.355 90.4333 442.422 94.7H430.422C430.289 92.4333 429.455 90.9 427.922 90.1C426.455 89.2333 423.755 88.8 419.822 88.8C415.689 88.8 412.855 89.1667 411.322 89.9C409.789 90.6333 409.022 92 409.022 94C409.022 95.0667 410.055 96.0333 412.122 96.9C414.255 97.7 418.355 98.8 424.422 100.2C429.422 101.333 433.289 102.6 436.022 104C438.755 105.333 440.689 107.033 441.822 109.1C443.022 111.167 443.622 113.833 443.622 117.1C443.622 121.233 442.922 124.433 441.522 126.7C440.122 128.967 437.722 130.567 434.322 131.5C430.989 132.433 426.255 132.9 420.122 132.9ZM486.383 133.1C481.583 133.1 477.949 132.467 475.483 131.2C473.016 129.933 471.349 128.067 470.483 125.6C469.616 123.067 469.183 119.633 469.183 115.3V90.1H456.283L458.683 79.8H469.583V69.2L481.183 64.3V79.8H500.683V90.1H481.183V114.9C481.183 117.033 481.349 118.6 481.683 119.6C482.083 120.6 482.883 121.333 484.083 121.8C485.349 122.267 487.249 122.5 489.783 122.5C492.649 122.5 496.816 122.1 502.283 121.3V131.8C495.349 132.667 490.049 133.1 486.383 133.1ZM535.144 132.9C530.277 132.9 526.51 132.433 523.844 131.5C521.244 130.5 519.377 128.867 518.244 126.6C517.177 124.267 516.644 121 516.644 116.8C516.644 111.867 517.41 108.067 518.944 105.4C520.477 102.667 523.077 100.733 526.744 99.6C530.41 98.4667 535.61 97.9 542.344 97.9H550.244V97.3C550.244 93.9667 549.51 91.7 548.044 90.5C546.577 89.3 543.81 88.7 539.744 88.7C536.077 88.7 533.577 89.2 532.244 90.2C530.977 91.1333 530.41 92.9667 530.544 95.7H518.344C518.144 91.1667 518.644 87.7 519.844 85.3C521.11 82.8333 523.277 81.1 526.344 80.1C529.477 79.0333 533.944 78.5 539.744 78.5C545.544 78.5 550.01 79.0667 553.144 80.2C556.344 81.3333 558.61 83.2333 559.944 85.9C561.277 88.5667 561.944 92.3667 561.944 97.3V132H550.544V125.8H549.744C547.877 128.533 545.91 130.4 543.844 131.4C541.777 132.4 538.877 132.9 535.144 132.9ZM528.844 115.9C528.844 118.433 529.41 120.167 530.544 121.1C531.744 122.033 533.977 122.5 537.244 122.5C540.577 122.5 543.144 122.067 544.944 121.2C546.744 120.333 548.01 118.867 548.744 116.8C549.544 114.733 550.01 111.767 550.144 107.9L540.244 108C537.244 108.067 534.91 108.333 533.244 108.8C531.644 109.267 530.51 110.067 529.844 111.2C529.177 112.267 528.844 113.833 528.844 115.9ZM576.605 79.8H588.805V87H589.605C591.471 83.7333 593.405 81.5 595.405 80.3C597.405 79.1 600.238 78.5 603.905 78.5C608.971 78.5 612.871 79.1333 615.605 80.4C618.338 81.6 620.271 83.6667 621.405 86.6C622.605 89.4667 623.205 93.6 623.205 99V132H611.005V98.8C611.005 95.1333 610.305 92.6333 608.905 91.3C607.571 89.9667 605.038 89.3 601.305 89.3C598.038 89.3 595.505 89.7667 593.705 90.7C591.971 91.6333 590.705 93.2333 589.905 95.5C589.171 97.7 588.805 100.833 588.805 104.9V132H576.605V79.8ZM666.266 133.1C661.466 133.1 657.832 132.467 655.366 131.2C652.899 129.933 651.232 128.067 650.366 125.6C649.499 123.067 649.066 119.633 649.066 115.3V90.1H636.166L638.566 79.8H649.466V69.2L661.066 64.3V79.8H680.566V90.1H661.066V114.9C661.066 117.033 661.232 118.6 661.566 119.6C661.966 120.6 662.766 121.333 663.966 121.8C665.232 122.267 667.132 122.5 669.666 122.5C672.532 122.5 676.699 122.1 682.166 121.3V131.8C675.232 132.667 669.932 133.1 666.266 133.1Z" fill="black"/>
<rect width="186.922" height="186.922" fill="black"/>
<rect x="34.3533" y="33.3429" width="50.5195" height="121.247" fill="white"/>
</svg>
