<svg width="24" height="24" viewBox="0 0 24 24" fill="none" xmlns="http://www.w3.org/2000/svg">
<g clip-path="url(#clip0_2_16)">
<path d="M16.0938 5.90625C16.2578 5.90625 16.5117 5.92578 16.8555 5.96484C17.207 5.99609 17.6055 6.08203 18.0508 6.22266C18.4961 6.36328 18.9492 6.58984 19.4102 6.90234C19.8711 7.21484 20.2969 7.65234 20.6875 8.21484C20.6484 8.23828 20.5 8.34375 20.2422 8.53125C19.9922 8.71875 19.707 8.99219 19.3867 9.35156C19.0664 9.70312 18.7852 10.1523 18.543 10.6992C18.3086 11.2383 18.1914 11.8828 18.1914 12.6328C18.1914 13.4922 18.3398 14.2188 18.6367 14.8125C18.9414 15.4062 19.293 15.8867 19.6914 16.2539C20.0977 16.6211 20.457 16.8906 20.7695 17.0625C21.0898 17.2266 21.2617 17.3125 21.2852 17.3203C21.2773 17.3516 21.2188 17.5273 21.1094 17.8477C21 18.1602 20.8281 18.5664 20.5938 19.0664C20.3672 19.5586 20.0703 20.0742 19.7031 20.6133C19.3672 21.0898 19.0195 21.5469 18.6602 21.9844C18.3086 22.4219 17.9219 22.7773 17.5 23.0508C17.0859 23.332 16.6172 23.4727 16.0938 23.4727C15.6953 23.4727 15.3555 23.4258 15.0742 23.332C14.793 23.2383 14.5234 23.1289 14.2656 23.0039C14.0156 22.8867 13.7383 22.7812 13.4336 22.6875C13.1289 22.5938 12.75 22.5469 12.2969 22.5469C11.7031 22.5469 11.207 22.625 10.8086 22.7812C10.418 22.9453 10.0469 23.1055 9.69531 23.2617C9.34375 23.418 8.92969 23.4961 8.45312 23.4961C7.72656 23.4961 7.08594 23.207 6.53125 22.6289C5.98438 22.0508 5.42188 21.3594 4.84375 20.5547C4.39844 19.9141 3.99219 19.1758 3.625 18.3398C3.25781 17.5039 2.96484 16.6172 2.74609 15.6797C2.52734 14.7422 2.41797 13.8047 2.41797 12.8672C2.41797 11.3672 2.70312 10.1055 3.27344 9.08203C3.84375 8.05859 4.57422 7.28516 5.46484 6.76172C6.35547 6.23828 7.28125 5.97656 8.24219 5.97656C8.75 5.97656 9.22656 6.05859 9.67188 6.22266C10.125 6.38672 10.5469 6.55469 10.9375 6.72656C11.3281 6.89062 11.6836 6.97266 12.0039 6.97266C12.3086 6.97266 12.668 6.88672 13.082 6.71484C13.4961 6.53516 13.9531 6.35547 14.4531 6.17578C14.9609 5.99609 15.5078 5.90625 16.0938 5.90625ZM15.2734 4.00781C14.8828 4.48438 14.3906 4.87891 13.7969 5.19141C13.2109 5.50391 12.6562 5.66016 12.1328 5.66016C12.0234 5.66016 11.918 5.64844 11.8164 5.625C11.8086 5.59375 11.7969 5.53906 11.7812 5.46094C11.7734 5.38281 11.7695 5.29688 11.7695 5.20312C11.7695 4.60937 11.8984 4.03125 12.1562 3.46875C12.4141 2.90625 12.7109 2.4375 13.0469 2.0625C13.4609 1.57031 13.9844 1.16016 14.6172 0.832031C15.2578 0.503906 15.8711 0.328125 16.457 0.304688C16.4805 0.4375 16.4922 0.589844 16.4922 0.761719C16.4922 1.36328 16.3789 1.94922 16.1523 2.51953C15.9258 3.08203 15.6328 3.57812 15.2734 4.00781Z" fill="black"/>
</g>
<defs>
<clipPath id="clip0_2_16">
<rect width="24" height="24" fill="white"/>
</clipPath>
</defs>
</svg>
