<svg width="24" height="24" viewBox="0 0 32 32" fill="none" xmlns="http://www.w3.org/2000/svg">
  <ellipse cx="16.0003" cy="16" rx="4.99998" ry="5" fill="#131316"
    style="fill:#131316;fill:color(display-p3 0.0745 0.0745 0.0863);fill-opacity:1;" />
  <path
    d="M25.0091 27.8382C25.4345 28.2636 25.3918 28.9679 24.8919 29.3027C22.3488 31.0062 19.2899 31.9997 15.9991 31.9997C12.7082 31.9997 9.64935 31.0062 7.10616 29.3027C6.60633 28.9679 6.56361 28.2636 6.98901 27.8382L10.6429 24.1843C10.9732 23.854 11.4855 23.8019 11.9012 24.0148C13.1303 24.6445 14.5232 24.9997 15.9991 24.9997C17.4749 24.9997 18.8678 24.6445 20.0969 24.0148C20.5126 23.8019 21.0249 23.854 21.3552 24.1843L25.0091 27.8382Z"
    fill="#131316" style="fill:#131316;fill:color(display-p3 0.0745 0.0745 0.0863);fill-opacity:1;" />
  <path
    d="M24.8928 2.697C25.3926 3.0318 25.4353 3.73609 25.0099 4.16149L21.356 7.81544C21.0258 8.14569 20.5134 8.19785 20.0978 7.98491C18.8687 7.35525 17.4758 7 15.9999 7C11.0294 7 6.99997 11.0294 6.99997 16C6.99997 17.4759 7.35522 18.8688 7.98488 20.0979C8.19782 20.5136 8.14565 21.0259 7.81541 21.3561L4.16147 25.0101C3.73607 25.4355 3.03178 25.3927 2.69698 24.8929C0.993522 22.3497 0 19.2909 0 16C0 7.16344 7.16341 0 15.9999 0C19.2908 0 22.3496 0.993529 24.8928 2.697Z"
    fill="#131316" style="fill:#131316;fill:color(display-p3 0.0745 0.0745 0.0863);fill-opacity:1;" />
</svg>
