<svg width="24" height="24" viewBox="0 0 132 124" fill="none" xmlns="http://www.w3.org/2000/svg">
<path d="M31.6562 118.1C36.7084 120.133 42.1896 121.34 47.9447 121.541C55.7335 121.813 63.1403 120.202 69.7616 117.143C61.8214 114.024 54.6303 109.461 48.4929 103.79C44.5147 110.159 38.6305 115.19 31.6562 118.1Z" fill="#FF9100"/>
<path d="M48.4943 103.791C34.4847 90.8342 25.9858 72.0806 26.7041 51.5112C26.7274 50.8433 26.7626 50.1757 26.8039 49.5084C24.2948 48.8595 21.6753 48.4635 18.9796 48.3694C15.121 48.2346 11.3843 48.7132 7.85647 49.7066C4.11667 56.2577 1.85982 63.7742 1.57867 71.8254C0.85308 92.6036 13.4273 110.759 31.6575 118.101C38.6319 115.192 44.5158 110.167 48.4943 103.791Z" fill="#FFC400"/>
<path d="M48.4937 103.791C51.7509 98.5782 53.7258 92.4671 53.9557 85.8829C54.5605 68.5638 42.9175 53.6653 26.8033 49.5079C26.762 50.1753 26.7268 50.8428 26.7035 51.5108C25.9852 72.0802 34.484 90.8338 48.4937 103.791Z" fill="#FF9100"/>
<path d="M52.1523 0.825138C42.9747 8.17757 35.7275 17.8724 31.3428 29.0406C28.8325 35.4376 27.255 42.309 26.7944 49.5121C42.9087 53.6694 54.5517 68.568 53.9469 85.8871C53.7169 92.4712 51.7363 98.5762 48.4849 103.795C54.622 109.473 61.8134 114.029 69.7535 117.149C85.691 109.781 96.9986 93.9289 97.6534 75.1785C98.0777 63.0301 93.4101 52.2026 86.8147 43.0633C79.8495 33.3976 52.1523 0.825138 52.1523 0.825138Z" fill="#DD2C00"/>
<g filter="url(#filter0_d_47_3676)">
<circle cx="100" cy="90.4678" r="30" fill="white"/>
<path d="M83.5 102.468V98.2678C83.5 97.4178 83.7188 96.6365 84.1562 95.924C84.5938 95.2115 85.175 94.6678 85.9 94.2928C87.45 93.5178 89.025 92.9365 90.625 92.549C92.225 92.1615 93.85 91.9678 95.5 91.9678C97.15 91.9678 98.775 92.1615 100.375 92.549C101.975 92.9365 103.55 93.5178 105.1 94.2928C105.825 94.6678 106.406 95.2115 106.844 95.924C107.281 96.6365 107.5 97.4178 107.5 98.2678V102.468H83.5ZM110.5 102.468V97.9678C110.5 96.8678 110.194 95.8115 109.581 94.799C108.969 93.7865 108.1 92.9178 106.975 92.1928C108.25 92.3428 109.45 92.599 110.575 92.9615C111.7 93.324 112.75 93.7678 113.725 94.2928C114.625 94.7928 115.313 95.349 115.788 95.9615C116.263 96.574 116.5 97.2428 116.5 97.9678V102.468H110.5ZM95.5 90.4678C93.85 90.4678 92.4375 89.8803 91.2625 88.7053C90.0875 87.5303 89.5 86.1178 89.5 84.4678C89.5 82.8178 90.0875 81.4053 91.2625 80.2303C92.4375 79.0553 93.85 78.4678 95.5 78.4678C97.15 78.4678 98.5625 79.0553 99.7375 80.2303C100.913 81.4053 101.5 82.8178 101.5 84.4678C101.5 86.1178 100.913 87.5303 99.7375 88.7053C98.5625 89.8803 97.15 90.4678 95.5 90.4678ZM110.5 84.4678C110.5 86.1178 109.913 87.5303 108.738 88.7053C107.562 89.8803 106.15 90.4678 104.5 90.4678C104.225 90.4678 103.875 90.4365 103.45 90.374C103.025 90.3115 102.675 90.2428 102.4 90.1678C103.075 89.3678 103.594 88.4803 103.956 87.5053C104.319 86.5303 104.5 85.5178 104.5 84.4678C104.5 83.4178 104.319 82.4053 103.956 81.4303C103.594 80.4553 103.075 79.5678 102.4 78.7678C102.75 78.6428 103.1 78.5615 103.45 78.524C103.8 78.4865 104.15 78.4678 104.5 78.4678C106.15 78.4678 107.562 79.0553 108.738 80.2303C109.913 81.4053 110.5 82.8178 110.5 84.4678Z" fill="#1F1F1F"/>
</g>
<defs>
<filter id="filter0_d_47_3676" x="68" y="59.1382" width="64" height="64" filterUnits="userSpaceOnUse" color-interpolation-filters="sRGB">
<feFlood flood-opacity="0" result="BackgroundImageFix"/>
<feColorMatrix in="SourceAlpha" type="matrix" values="0 0 0 0 0 0 0 0 0 0 0 0 0 0 0 0 0 0 127 0" result="hardAlpha"/>
<feOffset dy="0.670408"/>
<feGaussianBlur stdDeviation="1"/>
<feComposite in2="hardAlpha" operator="out"/>
<feColorMatrix type="matrix" values="0 0 0 0 0 0 0 0 0 0 0 0 0 0 0 0 0 0 0.3 0"/>
<feBlend mode="normal" in2="BackgroundImageFix" result="effect1_dropShadow_47_3676"/>
<feBlend mode="normal" in="SourceGraphic" in2="effect1_dropShadow_47_3676" result="shape"/>
</filter>
</defs>
</svg>
