<svg width="24" height="24" viewBox="0 0 24 24" fill="none" xmlns="http://www.w3.org/2000/svg">
  <rect width="24" height="24" rx="4" fill="#24292e"/>
  <path d="M12 3C7.0275 3 3 7.13211 3 12.2284C3 16.3065 5.5785 19.7648 9.15375 20.9836C9.60375 21.0709 9.76875 20.7853 9.76875 20.5403C9.76875 20.3212 9.76125 19.7405 9.7575 18.9712C7.254 19.5277 6.726 17.7332 6.726 17.7332C6.3135 16.6681 5.72475 16.3832 5.72475 16.3832C4.9095 15.8111 5.78775 15.8229 5.78775 15.8229C6.6915 15.887 7.16625 16.7737 7.16625 16.7737C7.96875 18.1847 9.273 17.777 9.7875 17.5414C9.8685 16.9443 10.1003 16.5381 10.3575 16.3073C8.35875 16.0764 6.258 15.2886 6.258 11.7674C6.258 10.7644 6.60675 9.94377 7.18425 9.29979C7.083 9.06556 6.77925 8.13095 7.263 6.88254C7.263 6.88254 8.01675 6.63473 9.738 7.82389C10.458 7.62061 11.229 7.51897 12 7.51443C12.771 7.51897 13.542 7.62061 14.262 7.82389C15.9795 6.63473 16.737 6.88254 16.737 6.88254C17.2207 8.13095 16.917 9.06556 16.8195 9.29979C17.3932 9.94377 17.742 10.7644 17.742 11.7674C17.742 15.2982 15.6337 16.0724 13.6275 16.2994C13.9537 16.5854 14.2463 17.1587 14.2463 18.0311C14.2463 19.2499 14.2343 20.2288 14.2343 20.5364C14.2343 20.7822 14.3955 21.0669 14.8523 20.9759C18.4477 19.7609 21 16.3034 21 12.2284C21 7.13211 16.9725 3 12 3Z" fill="white"/>
</svg>