<svg width="24" height="24" viewBox="0 0 24 24" fill="none" xmlns="http://www.w3.org/2000/svg">
  <rect width="24" height="24" rx="4" fill="#0A66C2"/>
  <path d="M8.066 9.333H5.6V18H8.066V9.333ZM6.833 8.086c.79 0 1.433-.64 1.433-1.429 0-.79-.643-1.43-1.433-1.43-.79 0-1.433.64-1.433 1.43 0 .789.643 1.429 1.433 1.429Zm4.934 9.914h2.466v-4.528c0-1.205.494-1.99 1.533-1.99.944 0 1.398.636 1.398 1.99V18h2.467v-4.937c0-2.557-1.365-3.756-3.19-3.756-1.474 0-2.301.812-2.682 1.434h.02V9.333h-2.012c.026.819 0 8.667 0 8.667Z" fill="white"/>
</svg>
